<?xml version="1.0" standalone="no"?>
<!DOCTYPE svg PUBLIC "-//W3C//DTD SVG 20010904//EN"
 "http://www.w3.org/TR/2001/REC-SVG-20010904/DTD/svg10.dtd">
<svg version="1.0" xmlns="http://www.w3.org/2000/svg"
 width="86.000000pt" height="86.000000pt" viewBox="0 0 86.000000 86.000000"
 preserveAspectRatio="xMidYMid meet">
<metadata>
Created by potrace 1.14, written by Peter Selinger 2001-2017
</metadata>
<g transform="translate(0.000000,86.000000) scale(0.100000,-0.100000)"
fill="#000000" stroke="none">
<path d="M25 643 c-21 -12 -26 -18 -15 -21 47 -15 72 -59 130 -235 55 -164 74
-187 157 -187 49 0 63 4 81 23 12 13 22 34 22 47 0 22 -1 22 -18 7 -10 -10
-23 -17 -28 -17 -12 0 -39 45 -52 90 -55 186 -77 241 -107 274 -30 33 -37 36
-86 36 -30 -1 -67 -8 -84 -17z"/>
<path d="M273 648 c-28 -13 -30 -28 -5 -35 28 -7 69 -84 103 -195 56 -183 83
-218 165 -218 68 0 81 6 101 44 31 60 56 185 34 172 -5 -3 -12 -22 -16 -43 -8
-44 -42 -113 -55 -113 -22 0 -47 57 -99 227 -24 76 -40 111 -65 138 -30 32
-38 35 -87 34 -30 0 -64 -5 -76 -11z"/>
<path d="M535 644 c-25 -26 -43 -68 -36 -87 5 -15 9 -13 24 13 30 50 59 34 91
-51 25 -69 45 -83 127 -87 57 -4 74 -1 89 13 26 24 25 32 -4 39 -18 4 -34 24
-57 72 -44 89 -65 104 -150 104 -48 0 -72 -4 -84 -16z"/>
</g>
</svg>
