<svg width="14" height="19" viewBox="0 0 14 19" fill="none" xmlns="http://www.w3.org/2000/svg">
<path fill-rule="evenodd" clip-rule="evenodd" d="M8.98399 16.3313C10.9088 13.8768 13.3333 10.3108 13.3333 7.92147C13.3333 3.95943 10.3486 0.747559 6.66667 0.747559C2.98477 0.747559 0 3.95943 0 7.92147C0 10.3108 2.42454 13.8768 4.34934 16.3313C5.35354 17.6118 5.85564 18.2521 6.66667 18.2521C7.47769 18.2521 7.97979 17.6118 8.98399 16.3313ZM6.66667 10.7476C5.28595 10.7476 4.16667 9.62827 4.16667 8.24756C4.16667 6.86685 5.28595 5.74756 6.66667 5.74756C8.04738 5.74756 9.16667 6.86685 9.16667 8.24756C9.16667 9.62827 8.04738 10.7476 6.66667 10.7476Z" fill="#FFD000"/>
</svg>
