<svg width="255" height="50" viewBox="0 0 255 50" fill="none" xmlns="http://www.w3.org/2000/svg">
<path d="M35.5431 41.9148C31.8543 41.9148 28.313 26.6516 27.1326 22.6505C25.5959 17.4418 22.881 6.36442 16.7598 2.90495C15.7058 2.30927 14.4949 2.05243 13.2855 2.05243L7.03737 2.05247C5.48571 2.05247 3.97322 2.53278 2.70345 3.42852C1.671 4.1568 0.539169 5.07093 -0.0172119 5.90533C6.47513 5.46077 10.7672 18.5515 12.7226 25.4056C14.6901 32.3024 18.8696 47.9905 25.9522 47.9905H34.3627C37.7564 47.9905 40.4124 41.9148 40.4124 41.9148L39.0844 38.5065C39.0844 38.5065 38.1991 41.9148 35.5431 41.9148Z" fill="black"/>
<path d="M59.742 41.9148C56.0558 41.7741 52.5119 26.6516 51.3315 22.6505C49.7947 17.4418 47.0799 6.36442 40.9586 2.90495C39.9046 2.30927 38.6938 2.05243 37.4843 2.05243L31.2362 2.05247C29.6846 2.05247 28.1721 2.53278 26.9023 3.42852C25.8699 4.1568 24.738 5.07093 24.1816 5.90533C30.674 5.46077 34.9661 18.5515 36.9214 25.4056C38.889 32.3024 43.0685 47.9905 50.151 47.9905H58.5616C65.9853 47.9905 68.3461 26.5034 68.3461 26.5034L66.723 26.0588C66.723 26.0588 63.6244 42.063 59.742 41.9148Z" fill="black"/>
<mask id="mask0_1_580" style="mask-type:luminance" maskUnits="userSpaceOnUse" x="49" y="2" width="37" height="24">
<path d="M66.3943 2.05243H57.1126C51.6726 2.05243 49.4399 10.471 49.4399 10.471L50.9348 14.352C50.9348 14.352 52.5569 7.84374 55.81 8.1281C62.5916 8.72091 59.0503 25.0215 72.2574 25.0215H79.1526C83.249 25.0215 85.7574 20.5758 85.7574 20.5758C74.9861 21.0204 77.7896 2.05243 66.3943 2.05243Z" fill="white"/>
</mask>
<g mask="url(#mask0_1_580)">
<path d="M66.3943 2.05243H57.1126C51.6726 2.05243 49.4399 10.471 49.4399 10.471L50.9348 14.352C50.9348 14.352 52.5569 7.84374 55.81 8.1281C62.5916 8.72091 59.0503 25.0215 72.2574 25.0215H79.1526C83.249 25.0215 85.7574 20.5758 85.7574 20.5758C74.9861 21.0204 77.7896 2.05243 66.3943 2.05243Z" fill="#FFD000"/>
</g>
<mask id="mask1_1_580" style="mask-type:luminance" maskUnits="userSpaceOnUse" x="49" y="2" width="37" height="24">
<path d="M66.3943 2.05243H57.1126C51.6726 2.05243 49.4399 10.471 49.4399 10.471L50.9348 14.352C50.9348 14.352 52.5569 7.84374 55.81 8.1281C62.5916 8.72091 59.0503 25.0215 72.2574 25.0215H79.1526C83.249 25.0215 85.7574 20.5758 85.7574 20.5758C74.9861 21.0204 77.7896 2.05243 66.3943 2.05243Z" fill="white"/>
</mask>
<g mask="url(#mask1_1_580)">
<path d="M62.2628 2.05243H52.9812C47.5412 2.05243 45.3085 10.471 45.3085 10.471L46.8034 14.352C46.8034 14.352 48.4255 7.84374 51.6785 8.1281C58.4601 8.72091 54.9188 25.0215 68.1259 25.0215H75.0211C79.1176 25.0215 81.626 20.5758 81.626 20.5758C70.8546 21.0204 73.6581 2.05243 62.2628 2.05243Z" fill="#DE0A14"/>
</g>
<mask id="mask2_1_580" style="mask-type:luminance" maskUnits="userSpaceOnUse" x="49" y="2" width="37" height="24">
<path d="M66.3943 2.05243H57.1126C51.6726 2.05243 49.4399 10.471 49.4399 10.471L50.9348 14.352C50.9348 14.352 52.5569 7.84374 55.81 8.1281C62.5916 8.72091 59.0503 25.0215 72.2574 25.0215H79.1526C83.249 25.0215 85.7574 20.5758 85.7574 20.5758C74.9861 21.0204 77.7896 2.05243 66.3943 2.05243Z" fill="white"/>
</mask>
<g mask="url(#mask2_1_580)">
<path d="M58.1313 2.05243H48.8496C43.4096 2.05243 50.7873 25.0215 63.9944 25.0215H70.8896C74.9861 25.0215 77.4945 20.5758 77.4945 20.5758C66.7231 21.0204 69.5266 2.05243 58.1313 2.05243Z" fill="black"/>
</g>
<path d="M95.3815 20.9756V19.1439C95.6878 19.1262 95.9645 19.0944 96.2124 19.0492C96.4598 19.0035 96.6674 18.9042 96.834 18.7499C97.0007 18.596 97.1288 18.3606 97.2189 18.0431C97.3089 17.7261 97.3539 17.2869 97.3539 16.7251V6.05571C97.3539 5.80207 97.3563 5.55265 97.3609 5.30791C97.3651 5.06357 97.3721 4.83048 97.3809 4.60808C97.3897 4.38618 97.4013 4.18429 97.4148 4.0034C97.4282 3.82206 97.444 3.67238 97.4621 3.55493L95.3815 3.63604V1.51939L103.447 1.49237C104.663 1.49237 105.768 1.61917 106.763 1.87187C107.759 2.12502 108.648 2.477 109.432 2.92831C110.215 3.38006 110.895 3.91298 111.471 4.52697C112.048 5.14145 112.525 5.80301 112.904 6.51214C113.282 7.22078 113.563 7.96161 113.748 8.73365C113.932 9.50618 114.025 10.2759 114.025 11.0438C114.025 11.7953 113.939 12.5632 113.768 13.3464C113.597 14.1301 113.329 14.891 112.964 15.6295C112.6 16.3675 112.133 17.0603 111.566 17.7083C110.999 18.356 110.319 18.9219 109.526 19.4063C108.733 19.8912 107.822 20.2735 106.791 20.5542C105.759 20.8353 104.6 20.9756 103.312 20.9756H95.3815ZM101.245 18.9135C101.38 18.9042 101.562 18.8995 101.792 18.8995C102.022 18.8995 102.265 18.9042 102.522 18.9135C102.778 18.9224 103.03 18.9294 103.278 18.9336C103.526 18.9383 103.731 18.9406 103.893 18.9406C104.901 18.9406 105.768 18.7345 106.493 18.3219C107.218 17.9098 107.815 17.362 108.283 16.6775C108.752 15.9936 109.098 15.2118 109.323 14.333C109.549 13.4541 109.661 12.5525 109.661 11.628C109.661 10.2055 109.515 8.97794 109.222 7.94529C108.929 6.91215 108.511 6.05805 107.966 5.38295C107.421 4.70835 106.761 4.20295 105.987 3.86775C105.212 3.53254 104.348 3.35115 103.393 3.32413C103.339 3.32413 103.285 3.32413 103.231 3.32413C102.952 3.32413 102.704 3.34229 102.488 3.37822C102.235 3.4239 102.026 3.52786 101.86 3.69104C101.693 3.85421 101.567 4.09432 101.481 4.41136C101.396 4.72836 101.353 5.15404 101.353 5.6888V16.4123C101.353 16.6664 101.35 16.9153 101.346 17.1601C101.342 17.4044 101.335 17.638 101.326 17.8599C101.317 18.0823 101.305 18.2837 101.292 18.4646C101.279 18.6459 101.263 18.7956 101.245 18.9135Z" fill="black"/>
<path d="M115.17 14.056C115.17 13.0793 115.334 12.1455 115.662 11.2545C115.989 10.3636 116.454 9.57426 117.055 8.88658C117.656 8.19939 118.382 7.65204 119.232 7.24502C120.082 6.838 121.029 6.63477 122.074 6.63477C122.587 6.63477 123.098 6.68 123.607 6.77042C124.116 6.86089 124.602 7.01238 125.066 7.22497C125.53 7.4376 125.962 7.71544 126.363 8.05906C126.764 8.40312 127.108 8.82831 127.396 9.33465C127.694 9.8414 127.923 10.4382 128.086 11.1254C128.248 11.7767 128.324 12.5231 128.315 13.3642C128.315 13.4094 128.315 13.4546 128.315 13.4998L119.223 13.6626C119.223 14.4225 119.293 15.126 119.433 15.7726C119.572 16.4193 119.795 16.9755 120.101 17.4412C120.407 17.907 120.808 18.2734 121.304 18.5401C121.799 18.8072 122.407 18.9406 123.127 18.9406C123.406 18.9406 123.717 18.9042 124.059 18.832C124.402 18.7597 124.751 18.6422 125.107 18.479C125.462 18.3163 125.82 18.1014 126.181 17.8347C126.541 17.5681 126.878 17.2403 127.194 16.851L128.437 18.0315C127.941 18.7462 127.414 19.3252 126.856 19.7681C126.297 20.2115 125.737 20.5551 125.174 20.7994C124.611 21.0437 124.057 21.2083 123.513 21.2945C122.968 21.3803 122.461 21.4232 121.993 21.4232C120.975 21.4232 120.048 21.2516 119.212 20.9076C118.375 20.5639 117.656 20.0712 117.055 19.4287C116.454 18.7867 115.989 18.0133 115.662 17.1088C115.334 16.2043 115.17 15.1871 115.17 14.056ZM119.412 11.7091H124.506C124.487 11.1389 124.42 10.6554 124.303 10.2573C124.186 9.85911 124.026 9.53604 123.823 9.28708C123.62 9.03856 123.384 8.85956 123.114 8.75092C122.844 8.64274 122.547 8.5882 122.222 8.5882C121.817 8.5882 121.454 8.66513 121.135 8.819C120.815 8.97282 120.538 9.18546 120.304 9.45677C120.069 9.72813 119.878 10.0559 119.73 10.4405C119.581 10.8247 119.475 11.2475 119.412 11.7091Z" fill="black"/>
<path d="M128.92 9.74161V7.59794C129.561 7.59794 130.126 7.57231 130.618 7.52056C131.109 7.4688 131.528 7.40446 131.876 7.32707C132.223 7.24969 132.503 7.16579 132.715 7.07532C132.927 6.98535 133.082 6.89722 133.181 6.81097H134.689V15.3181C134.689 16.5391 134.845 17.4342 135.156 18.0044C135.468 18.5741 135.976 18.859 136.681 18.859C136.906 18.859 137.141 18.8249 137.385 18.7574C137.629 18.6893 137.868 18.5946 138.103 18.4725C138.338 18.3503 138.562 18.2077 138.774 18.045C138.986 17.8823 139.174 17.7107 139.336 17.5293V12.0886C139.336 11.7543 139.343 11.3697 139.357 10.9356C139.37 10.5016 139.399 10.0764 139.444 9.66005L137.499 9.74161V7.59794C138.139 7.59794 138.702 7.57231 139.188 7.52056C139.674 7.4688 140.091 7.40446 140.437 7.32707C140.784 7.24969 141.063 7.16579 141.275 7.07532C141.486 6.98535 141.642 6.89722 141.741 6.81097H143.254V16.5121C143.245 17.0272 143.236 17.3937 143.227 17.6109C143.218 17.8277 143.207 18.052 143.193 18.2823C143.18 18.5131 143.164 18.7326 143.146 18.9406L144.943 18.859V20.9756H139.688L139.539 19.5238H139.512C139.232 19.7681 138.941 20.0054 138.638 20.2362C138.335 20.467 138.015 20.6702 137.676 20.8469C137.338 21.0232 136.976 21.163 136.593 21.2675C136.209 21.371 135.796 21.4232 135.353 21.4232C134.535 21.4232 133.837 21.3034 133.258 21.0638C132.678 20.8241 132.204 20.4558 131.836 19.9579C131.468 19.4609 131.198 18.8249 131.028 18.052C130.857 17.2785 130.771 16.3535 130.771 15.277V12.0886C130.771 11.7543 130.778 11.3697 130.791 10.9356C130.805 10.5016 130.834 10.0764 130.879 9.66005L128.92 9.74161Z" fill="black"/>
<path d="M145.264 9.4022V7.08231C145.742 7.07345 146.188 6.95317 146.602 6.72282C147.016 6.49206 147.388 6.20487 147.716 5.86126C148.045 5.51768 148.324 5.14187 148.554 4.7349C148.784 4.32788 148.953 3.94789 149.061 3.59546H151.101L151.087 7.08231H154.627V9.22598L151.088 9.29401C151.078 10.6055 151.071 11.6932 151.067 12.5566C151.062 13.4205 151.058 14.1129 151.053 14.6327C151.049 15.153 151.047 15.5236 151.047 15.7451C151.047 15.967 151.047 16.0957 151.047 16.1321C151.047 16.4575 151.067 16.781 151.107 17.1018C151.148 17.423 151.229 17.7125 151.351 17.9704C151.472 18.2282 151.643 18.4361 151.864 18.5946C152.085 18.7527 152.371 18.8319 152.722 18.8319C152.839 18.8319 152.985 18.8138 153.161 18.7778C153.337 18.7415 153.534 18.6669 153.755 18.5536C153.976 18.4408 154.212 18.2734 154.465 18.0519C154.716 17.83 154.973 17.534 155.234 17.1629L156.572 18.4114C156.068 19.1532 155.563 19.7275 155.059 20.1346C154.554 20.5416 154.073 20.84 153.613 21.0297C153.154 21.2199 152.736 21.3327 152.357 21.3691C151.979 21.405 151.664 21.4232 151.412 21.4232C151.105 21.4232 150.789 21.3985 150.461 21.3486C150.134 21.2987 149.81 21.2064 149.492 21.0707C149.173 20.9351 148.872 20.743 148.59 20.494C148.307 20.2455 148.056 19.922 147.836 19.5238C147.616 19.1261 147.443 18.6445 147.317 18.079C147.191 17.5139 147.129 16.8468 147.129 16.0775L147.169 9.37517L145.264 9.4022Z" fill="black"/>
<path d="M156.623 11.1053C156.623 10.5724 156.725 10.04 156.928 9.50713C157.13 8.97376 157.443 8.49543 157.866 8.0707C158.29 7.64646 158.83 7.301 159.488 7.03432C160.145 6.76808 160.928 6.63477 161.838 6.63477C162.093 6.63477 162.369 6.65293 162.665 6.68886C162.962 6.72519 163.26 6.78162 163.561 6.85855C163.862 6.93549 164.154 7.03292 164.436 7.14992C164.719 7.26786 164.974 7.40775 165.202 7.57092H165.229L165.188 6.78396H167.296V11.6876H165.472C165.391 11.2093 165.24 10.7785 165.02 10.3953C164.799 10.0116 164.522 9.68708 164.189 9.4204C163.856 9.15466 163.475 8.94953 163.047 8.80501C162.619 8.66045 162.158 8.5882 161.663 8.5882C161.428 8.5882 161.201 8.61526 160.98 8.66931C160.76 8.7239 160.564 8.80965 160.392 8.92669C160.222 9.04418 160.087 9.19521 159.987 9.38033C159.888 9.56496 159.839 9.79293 159.839 10.0638C159.839 10.3883 159.924 10.6568 160.095 10.869C160.266 11.0806 160.505 11.2634 160.812 11.4168C161.118 11.5706 161.475 11.7124 161.885 11.8433C162.295 11.9739 162.739 12.1207 163.216 12.283C163.919 12.5268 164.567 12.793 165.161 13.0816C165.756 13.3702 166.27 13.7063 166.702 14.0896C167.134 14.4733 167.474 14.9111 167.722 15.4029C167.969 15.8943 168.093 16.465 168.093 17.1144C168.093 17.8417 167.951 18.4758 167.668 19.0166C167.384 19.5579 167.008 20.0054 166.54 20.3602C166.071 20.7145 165.535 20.9803 164.932 21.1575C164.328 21.3346 163.702 21.4232 163.054 21.4232C162.656 21.4232 162.257 21.3957 161.858 21.3412C161.46 21.2861 161.08 21.2106 160.717 21.1146C160.355 21.018 160.022 20.902 159.718 20.7644C159.415 20.6269 159.155 20.4763 158.938 20.3113H158.91L159.028 21.1654H156.921L156.812 16.3703H158.447C158.484 16.7941 158.624 17.1914 158.867 17.5611C159.109 17.9312 159.425 18.2515 159.817 18.5219C160.208 18.7928 160.667 19.0049 161.194 19.1583C161.72 19.3117 162.286 19.3882 162.892 19.3882C163.117 19.3882 163.344 19.3611 163.574 19.3071C163.804 19.253 164.009 19.1695 164.189 19.0567C164.369 18.9438 164.515 18.8017 164.628 18.6306C164.74 18.459 164.797 18.2515 164.797 18.0077C164.797 17.7461 164.727 17.5228 164.587 17.3382C164.447 17.1531 164.243 16.9816 163.973 16.8235C163.702 16.6659 163.367 16.5102 162.966 16.3568C162.566 16.2034 162.104 16.023 161.581 15.815C161.005 15.5899 160.424 15.3577 159.839 15.1185C159.253 14.8794 158.722 14.5885 158.245 14.2453C157.767 13.9026 157.378 13.4807 157.076 12.98C156.774 12.4793 156.623 11.8545 156.623 11.1053Z" fill="black"/>
<path d="M169.13 14.3274C169.13 13.2872 169.306 12.2993 169.657 11.3631C170.009 10.427 170.499 9.61064 171.13 8.9141C171.76 8.21755 172.517 7.66368 173.4 7.25204C174.282 6.84034 175.26 6.63477 176.332 6.63477C177.222 6.63477 178.008 6.74291 178.688 6.96017C179.368 7.17744 179.936 7.46229 180.391 7.81476C180.846 8.16769 181.188 8.57282 181.418 9.02925C181.647 9.48613 181.762 9.95844 181.762 10.447C181.762 10.7277 181.718 10.9944 181.63 11.2475C181.542 11.5012 181.412 11.7226 181.241 11.9124C181.069 12.1026 180.859 12.2518 180.608 12.3599C180.358 12.4685 180.075 12.5231 179.761 12.5231C179.408 12.5231 179.116 12.4643 178.885 12.3464C178.653 12.2289 178.463 12.0821 178.315 11.9058C178.167 11.7291 178.063 11.5347 178.002 11.3221C177.942 11.11 177.912 10.9086 177.912 10.7184C177.912 10.5557 177.94 10.3589 177.995 10.1281C178.051 9.89783 178.139 9.69176 178.259 9.51086C178.16 9.32997 178.031 9.18078 177.872 9.06329C177.714 8.9458 177.546 8.8507 177.37 8.77844C177.194 8.70618 177.017 8.65627 176.84 8.62925C176.664 8.60173 176.507 8.5882 176.372 8.5882C175.903 8.5882 175.475 8.69499 175.088 8.90708C174.701 9.11972 174.366 9.43627 174.082 9.85677C173.798 10.2773 173.577 10.7953 173.42 11.4102C173.262 12.0256 173.184 12.7357 173.184 13.5404C173.184 14.2462 173.249 14.9246 173.38 15.5759C173.51 16.2267 173.724 16.8016 174.021 17.2985C174.318 17.7965 174.71 18.1942 175.197 18.4926C175.683 18.7914 176.282 18.9406 176.994 18.9406C177.371 18.9406 177.751 18.8884 178.133 18.7844C178.515 18.6804 178.881 18.5359 179.231 18.3504C179.58 18.1648 179.914 17.941 180.231 17.6785C180.549 17.4165 180.832 17.127 181.081 16.8105L182.351 18.045C181.847 18.7415 181.326 19.3094 180.788 19.7476C180.25 20.1868 179.706 20.5304 179.156 20.7789C178.606 21.0274 178.061 21.1971 177.52 21.2875C176.98 21.378 176.453 21.4232 175.94 21.4232C175.003 21.4232 174.122 21.2652 173.298 20.9486C172.474 20.632 171.754 20.1705 171.137 19.5644C170.52 18.9588 170.031 18.217 169.671 17.3396C169.311 16.4622 169.13 15.4584 169.13 14.3274Z" fill="black"/>
<path d="M182.408 2.93064V0.786966C183.047 0.786966 183.612 0.761336 184.104 0.709582C184.594 0.657828 185.013 0.593484 185.36 0.516101C185.707 0.438717 185.986 0.354769 186.198 0.264345C186.409 0.174372 186.564 0.0862416 186.664 0H188.163V8.18121C188.433 7.9644 188.742 7.763 189.089 7.57743C189.435 7.39236 189.791 7.22963 190.156 7.0893C190.52 6.94897 190.881 6.83799 191.237 6.75688C191.592 6.67531 191.91 6.63476 192.189 6.63476C193.036 6.63476 193.754 6.75454 194.344 6.9942C194.933 7.23382 195.416 7.60261 195.789 8.10005C196.163 8.59754 196.436 9.23531 196.607 10.013C196.778 10.7911 196.863 11.7137 196.863 12.7809V16.5121C196.863 16.6477 196.861 16.8105 196.857 17.0002C196.852 17.1904 196.845 17.3937 196.836 17.6109C196.827 17.8277 196.816 18.052 196.803 18.2823C196.789 18.5131 196.773 18.7326 196.756 18.9406L198.552 18.859V20.9756H191.298V19.1439C191.685 19.1439 191.988 19.0856 192.209 18.9681C192.43 18.8511 192.594 18.6842 192.702 18.4674C192.811 18.2511 192.878 17.9918 192.905 17.6897C192.932 17.3876 192.946 17.0515 192.946 16.6813L192.932 12.7306C192.923 11.5128 192.738 10.6195 192.378 10.0512C192.018 9.48334 191.455 9.19894 190.689 9.19894C190.212 9.2078 189.75 9.30991 189.305 9.50433C188.859 9.69872 188.478 9.93604 188.163 10.2163V16.5121C188.163 16.6477 188.161 16.8105 188.156 17.0002C188.152 17.1904 188.145 17.3937 188.136 17.6109C188.127 17.8277 188.116 18.052 188.102 18.2823C188.089 18.5131 188.073 18.7326 188.055 18.9406L189.852 18.859V20.9756H182.597V19.1439C182.984 19.1439 183.288 19.0861 183.509 18.9695C183.73 18.8534 183.894 18.6879 184.002 18.473C184.11 18.2585 184.178 18.0012 184.205 17.7014C184.232 17.4016 184.246 17.0687 184.246 16.7018V5.2776C184.246 4.94329 184.252 4.55866 184.266 4.12462C184.279 3.69058 184.308 3.2654 184.353 2.84903L182.408 2.93064Z" fill="black"/>
<path d="M199.238 14.056C199.238 13.0793 199.402 12.1455 199.73 11.2545C200.058 10.3636 200.522 9.57426 201.123 8.88658C201.725 8.19939 202.45 7.65204 203.3 7.24502C204.15 6.838 205.097 6.63477 206.142 6.63477C206.655 6.63477 207.166 6.68 207.675 6.77042C208.184 6.86089 208.67 7.01238 209.134 7.22497C209.598 7.4376 210.03 7.71544 210.431 8.05906C210.832 8.40312 211.176 8.82831 211.465 9.33465C211.762 9.8414 211.991 10.4382 212.154 11.1254C212.316 11.7767 212.392 12.5231 212.383 13.3642C212.383 13.4094 212.383 13.4546 212.383 13.4998L203.291 13.6626C203.291 14.4225 203.361 15.126 203.501 15.7726C203.64 16.4193 203.863 16.9755 204.169 17.4412C204.476 17.907 204.876 18.2734 205.372 18.5401C205.867 18.8072 206.475 18.9406 207.195 18.9406C207.474 18.9406 207.786 18.9042 208.128 18.832C208.47 18.7597 208.819 18.6422 209.175 18.479C209.531 18.3163 209.888 18.1014 210.249 17.8347C210.609 17.5681 210.946 17.2403 211.262 16.851L212.505 18.0315C212.009 18.7462 211.483 19.3252 210.924 19.7681C210.366 20.2115 209.805 20.5551 209.242 20.7994C208.679 21.0437 208.125 21.2083 207.581 21.2945C207.036 21.3803 206.529 21.4232 206.061 21.4232C205.043 21.4232 204.116 21.2516 203.28 20.9076C202.444 20.5639 201.725 20.0712 201.123 19.4287C200.522 18.7867 200.058 18.0133 199.73 17.1088C199.402 16.2043 199.238 15.1871 199.238 14.056ZM203.48 11.7091H208.574C208.556 11.1389 208.488 10.6554 208.371 10.2573C208.254 9.85911 208.094 9.53604 207.891 9.28708C207.688 9.03856 207.452 8.85956 207.182 8.75092C206.912 8.64274 206.615 8.5882 206.29 8.5882C205.885 8.5882 205.522 8.66513 205.203 8.819C204.883 8.97282 204.606 9.18546 204.372 9.45677C204.138 9.72813 203.946 10.0559 203.798 10.4405C203.649 10.8247 203.543 11.2475 203.48 11.7091Z" fill="black"/>
<path d="M94.8273 45.5067C94.8273 44.9346 94.9308 44.4195 95.1374 43.9621C95.3444 43.5043 95.6299 43.0949 95.9939 42.7341C96.3578 42.3732 96.7873 42.0613 97.2816 41.797C97.776 41.5331 98.309 41.313 98.8799 41.1373C99.4505 40.961 100.047 40.8244 100.667 40.7274C101.287 40.631 101.908 40.5685 102.528 40.5405V39.0542C102.528 38.6747 102.496 38.325 102.433 38.0057C102.37 37.6863 102.261 37.4108 102.107 37.1791C101.954 36.9478 101.75 36.7674 101.497 36.6373C101.262 36.517 100.973 36.4569 100.629 36.4569C100.602 36.4569 100.575 36.4569 100.548 36.4569C100.169 36.4746 99.8159 36.5511 99.4909 36.6849C99.1655 36.8191 98.8855 37.0071 98.6506 37.2481C98.7946 37.4005 98.8869 37.5749 98.9278 37.7716C98.9681 37.9679 98.9881 38.1334 98.9881 38.2677C98.9881 38.4644 98.9496 38.663 98.8721 38.8644C98.7946 39.0659 98.6734 39.2491 98.5086 39.4146C98.3442 39.5801 98.1358 39.7162 97.8837 39.8235C97.6321 39.9307 97.3318 39.9843 96.9831 39.9843C96.6925 39.9755 96.4312 39.919 96.1986 39.8146C95.966 39.7111 95.7725 39.5754 95.6174 39.4076C95.4624 39.2407 95.344 39.0439 95.2618 38.8178C95.1792 38.5917 95.1383 38.3474 95.1383 38.0849C95.1383 37.5423 95.2962 37.0448 95.6123 36.5926C95.9284 36.1403 96.3625 35.7539 96.9144 35.4326C97.4664 35.1114 98.1154 34.8624 98.8609 34.6862C99.6065 34.51 100.404 34.4219 101.253 34.4219C102.067 34.4219 102.792 34.5282 103.429 34.7408C104.066 34.9534 104.604 35.282 105.043 35.7259C105.481 36.1697 105.815 36.7343 106.046 37.4183C106.276 38.1027 106.392 38.9167 106.392 39.8598C106.392 40.3144 106.389 40.714 106.385 41.0589C106.38 41.4039 106.378 41.7317 106.378 42.0422C106.378 42.3527 106.376 42.6888 106.372 43.0506C106.367 43.4124 106.365 43.8287 106.365 44.2991C106.365 44.4348 106.362 44.5975 106.358 44.7873C106.353 44.9775 106.349 45.1808 106.344 45.398C106.34 45.6148 106.331 45.8391 106.317 46.0694C106.304 46.3002 106.288 46.5197 106.269 46.7277L108.053 46.6461V48.7627H102.813C102.776 48.5007 102.752 48.2811 102.738 48.1049C102.724 47.9282 102.713 47.7226 102.704 47.4872H102.677C102.042 48.1207 101.38 48.566 100.691 48.8238C100.002 49.0816 99.2899 49.2103 98.5555 49.2103C97.9673 49.2103 97.4418 49.1175 96.9785 48.9324C96.5157 48.7469 96.1257 48.4867 95.8096 48.152C95.493 47.8177 95.2502 47.4261 95.0812 46.9785C94.9118 46.5309 94.8273 46.0405 94.8273 45.5067ZM98.7453 45.0451C98.7541 45.3076 98.8038 45.529 98.8944 45.7099C98.9844 45.8908 99.0995 46.0405 99.2397 46.1575C99.3799 46.2755 99.5424 46.3612 99.7276 46.4153C99.9129 46.4699 100.105 46.4969 100.304 46.4969C100.738 46.4969 101.14 46.4065 101.511 46.2256C101.882 46.0447 102.211 45.7962 102.501 45.4791L102.514 42.3723C101.99 42.4268 101.498 42.5215 101.037 42.6571C100.575 42.7928 100.176 42.9718 99.8367 43.1933C99.4974 43.4147 99.2309 43.6795 99.0369 43.9868C98.8424 44.2945 98.7453 44.6474 98.7453 45.0451Z" fill="black"/>
<path d="M108.226 37.5287V35.385C108.866 35.385 109.432 35.3594 109.924 35.3077C110.415 35.2559 110.834 35.1916 111.181 35.1142C111.529 35.0368 111.809 34.9528 112.02 34.8624C112.232 34.7725 112.388 34.6843 112.487 34.5981H113.995V43.1052C113.995 44.3262 114.151 45.2214 114.462 45.7915C114.774 46.3612 115.282 46.6461 115.987 46.6461C116.212 46.6461 116.447 46.6121 116.691 46.5445C116.935 46.4764 117.174 46.3817 117.409 46.2596C117.644 46.1375 117.868 45.9948 118.08 45.8321C118.292 45.6694 118.48 45.4978 118.642 45.3165V39.8757C118.642 39.5414 118.649 39.1567 118.662 38.7227C118.676 38.2887 118.705 37.8635 118.75 37.4472L116.805 37.5287V35.385C117.444 35.385 118.007 35.3594 118.493 35.3077C118.98 35.2559 119.396 35.1916 119.743 35.1142C120.09 35.0368 120.369 34.9528 120.581 34.8624C120.792 34.7725 120.948 34.6843 121.047 34.5981H122.56V44.2991C122.551 44.8143 122.542 45.1808 122.533 45.398C122.524 45.6148 122.513 45.8391 122.499 46.0694C122.486 46.3002 122.47 46.5197 122.452 46.7277L124.249 46.6461V48.7627H118.993L118.845 47.3109H118.818C118.538 47.5552 118.246 47.7925 117.944 48.0233C117.641 48.2541 117.32 48.4573 116.982 48.6341C116.644 48.8103 116.282 48.9502 115.898 49.0546C115.515 49.1581 115.101 49.2103 114.659 49.2103C113.841 49.2103 113.143 49.0905 112.563 48.8508C111.984 48.6112 111.51 48.2429 111.142 47.745C110.773 47.248 110.504 46.6121 110.333 45.8391C110.163 45.0656 110.077 44.1406 110.077 43.0641V39.8757C110.077 39.5414 110.084 39.1567 110.097 38.7227C110.11 38.2887 110.14 37.8635 110.185 37.4472L108.226 37.5287Z" fill="black"/>
<path d="M124.57 37.1893V34.8694C125.047 34.8605 125.493 34.7402 125.908 34.5099C126.322 34.2792 126.693 33.992 127.022 33.6484C127.351 33.3047 127.63 32.929 127.86 32.5219C128.089 32.115 128.258 31.735 128.367 31.3825H130.406L130.393 34.8694H133.933V37.013L130.393 37.0811C130.384 38.3926 130.377 39.4803 130.372 40.3437C130.368 41.2076 130.364 41.8999 130.359 42.4198C130.354 42.9401 130.352 43.3107 130.352 43.5322C130.352 43.7541 130.352 43.8828 130.352 43.9191C130.352 44.2446 130.372 44.5681 130.413 44.8889C130.454 45.2101 130.535 45.4996 130.657 45.7574C130.778 46.0153 130.949 46.2232 131.17 46.3817C131.39 46.5398 131.676 46.619 132.027 46.619C132.144 46.619 132.291 46.6008 132.467 46.5649C132.643 46.5286 132.84 46.454 133.061 46.3407C133.282 46.2278 133.518 46.0605 133.771 45.839C134.022 45.6171 134.279 45.321 134.54 44.95L135.878 46.1985C135.374 46.9403 134.869 47.5146 134.365 47.9216C133.86 48.3286 133.379 48.627 132.919 48.8168C132.46 49.007 132.041 49.1198 131.663 49.1562C131.285 49.1921 130.969 49.2103 130.717 49.2103C130.411 49.2103 130.094 49.1855 129.767 49.1357C129.439 49.0858 129.116 48.9935 128.797 48.8578C128.478 48.7221 128.178 48.5301 127.895 48.2811C127.613 48.0326 127.361 47.7091 127.141 47.3109C126.921 46.9132 126.749 46.4316 126.623 45.8661C126.497 45.301 126.434 44.6339 126.434 43.8646L126.475 37.1622L124.57 37.1893Z" fill="black"/>
<path d="M135.713 42.1355C135.713 40.9853 135.897 39.9354 136.266 38.9847C136.635 38.0341 137.137 37.2215 137.771 36.5473C138.405 35.8727 139.145 35.3496 139.992 34.9785C140.837 34.6074 141.732 34.4219 142.677 34.4219C143.665 34.4219 144.583 34.5846 145.432 34.9105C146.28 35.2368 147.014 35.7072 147.634 36.3226C148.254 36.9385 148.741 37.6877 149.096 38.5703C149.451 39.4533 149.628 40.4515 149.628 41.5648C149.628 42.7308 149.46 43.7859 149.123 44.7299C148.786 45.6745 148.315 46.4787 147.708 47.1431C147.102 47.8074 146.377 48.318 145.534 48.6751C144.689 49.0317 143.764 49.2103 142.758 49.2103C141.76 49.2103 140.831 49.0457 139.971 48.7161C139.112 48.386 138.367 47.9161 137.738 47.3063C137.108 46.6965 136.613 45.9556 136.253 45.0833C135.893 44.2115 135.713 43.2287 135.713 42.1355ZM139.766 41.3881C139.766 42.1038 139.822 42.8124 139.935 43.5141C140.048 44.2162 140.229 44.8433 140.477 45.3957C140.725 45.9482 141.045 46.3962 141.438 46.7403C141.831 47.0848 142.307 47.2569 142.867 47.2569C143.418 47.248 143.866 47.0941 144.214 46.7948C144.561 46.496 144.837 46.109 145.04 45.6335C145.243 45.1579 145.383 44.626 145.46 44.0371C145.537 43.4488 145.575 42.8553 145.575 42.2576C145.575 41.5694 145.527 40.8743 145.433 40.1727C145.338 39.4705 145.176 38.8388 144.945 38.277C144.715 37.7157 144.412 37.2583 144.038 36.9054C143.664 36.552 143.192 36.3753 142.623 36.3753C142.082 36.3935 141.63 36.5497 141.269 36.8443C140.908 37.1385 140.615 37.5213 140.389 37.9922C140.163 38.463 140.003 38.995 139.908 39.588C139.813 40.1815 139.766 40.7815 139.766 41.3881Z" fill="black"/>
<path d="M150.22 30.7178V28.5741C150.859 28.5741 151.424 28.5484 151.915 28.4967C152.406 28.4449 152.825 28.3806 153.171 28.3032C153.518 28.2258 153.798 28.1419 154.009 28.0515C154.221 27.9614 154.376 27.8734 154.475 27.7871H155.975V44.2991C155.975 44.4348 155.973 44.5975 155.968 44.7873C155.963 44.9775 155.957 45.1807 155.948 45.398C155.939 45.6148 155.928 45.8391 155.914 46.0694C155.901 46.3002 155.885 46.5197 155.867 46.7277L157.664 46.6461V48.7627H150.409V46.9309C150.796 46.9309 151.1 46.8732 151.321 46.7566C151.542 46.6405 151.706 46.475 151.814 46.2601C151.922 46.0456 151.989 45.7883 152.016 45.4885C152.043 45.1887 152.057 44.8558 152.057 44.4889V33.0647C152.057 32.7304 152.064 32.3458 152.077 31.9117C152.091 31.4777 152.12 31.0525 152.165 30.6361L150.22 30.7178Z" fill="black"/>
<path d="M158.512 42.1355C158.512 40.9853 158.696 39.9354 159.065 38.9847C159.434 38.0341 159.936 37.2215 160.57 36.5473C161.204 35.8727 161.944 35.3496 162.791 34.9785C163.636 34.6074 164.531 34.4219 165.476 34.4219C166.464 34.4219 167.382 34.5846 168.231 34.9105C169.079 35.2368 169.813 35.7072 170.433 36.3226C171.053 36.9385 171.54 37.6877 171.895 38.5703C172.25 39.4533 172.427 40.4515 172.427 41.5648C172.427 42.7308 172.258 43.7859 171.922 44.7299C171.585 45.6745 171.114 46.4787 170.507 47.1431C169.901 47.8074 169.176 48.318 168.332 48.6751C167.488 49.0317 166.563 49.2103 165.557 49.2103C164.559 49.2103 163.629 49.0457 162.77 48.7161C161.911 48.386 161.166 47.9161 160.537 47.3063C159.907 46.6965 159.412 45.9556 159.052 45.0833C158.692 44.2115 158.512 43.2287 158.512 42.1355ZM162.565 41.3881C162.565 42.1038 162.621 42.8124 162.734 43.5141C162.847 44.2162 163.028 44.8433 163.276 45.3957C163.524 45.9482 163.844 46.3962 164.237 46.7403C164.63 47.0848 165.106 47.2569 165.666 47.2569C166.217 47.248 166.665 47.0941 167.013 46.7948C167.36 46.496 167.636 46.109 167.839 45.6335C168.042 45.1579 168.182 44.626 168.259 44.0371C168.336 43.4488 168.374 42.8553 168.374 42.2576C168.374 41.5694 168.326 40.8743 168.232 40.1727C168.137 39.4705 167.975 38.8388 167.744 38.277C167.514 37.7157 167.211 37.2583 166.837 36.9054C166.463 36.552 165.991 36.3753 165.422 36.3753C164.881 36.3935 164.429 36.5497 164.068 36.8443C163.707 37.1385 163.414 37.5213 163.188 37.9922C162.962 38.463 162.802 38.995 162.707 39.588C162.612 40.1815 162.565 40.7815 162.565 41.3881Z" fill="black"/>
<path d="M173.586 37.5287V35.3851C174.226 35.3851 174.791 35.3594 175.282 35.3077C175.773 35.2559 176.191 35.1916 176.538 35.1142C176.885 35.0368 177.164 34.9529 177.376 34.8624C177.587 34.7725 177.743 34.6843 177.842 34.5981H179.206L179.328 35.9417H179.369C179.639 35.7375 179.936 35.5417 180.26 35.3552C180.584 35.1687 180.915 35.006 181.253 34.8685C181.591 34.7305 181.942 34.6219 182.307 34.5417C182.672 34.4619 183.034 34.4219 183.394 34.4219C184.241 34.4219 184.941 34.5696 185.495 34.8648C186.049 35.1603 186.493 35.6168 186.826 36.234C187.159 35.9571 187.51 35.7063 187.88 35.4825C188.249 35.2587 188.629 35.0685 189.021 34.9119C189.413 34.7552 189.805 34.6345 190.197 34.5491C190.588 34.4643 190.969 34.4219 191.338 34.4219C192.076 34.4219 192.729 34.5235 193.297 34.7268C193.864 34.9305 194.337 35.2606 194.715 35.7175C195.094 36.1744 195.38 36.7688 195.573 37.5017C195.767 38.2341 195.864 39.1344 195.864 40.2015V44.2991C195.864 44.4348 195.862 44.5975 195.857 44.7873C195.852 44.9775 195.846 45.1808 195.837 45.398C195.828 45.6148 195.816 45.8391 195.803 46.0694C195.79 46.3002 195.774 46.5197 195.756 46.7277L197.552 46.6461V48.7628H190.568V46.931C190.883 46.931 191.133 46.8727 191.318 46.7552C191.502 46.6382 191.642 46.4713 191.736 46.2545C191.831 46.0381 191.89 45.7789 191.912 45.4768C191.935 45.1747 191.946 44.8386 191.946 44.4684L191.932 40.2198C191.932 39.5974 191.876 39.0789 191.763 38.664C191.651 38.2491 191.498 37.9199 191.304 37.6761C191.111 37.4327 190.876 37.2611 190.602 37.1618C190.327 37.0625 190.023 37.0131 189.69 37.0131C189.221 37.0224 188.798 37.1129 188.42 37.2844C188.042 37.4565 187.695 37.6691 187.38 37.9222C187.452 38.3022 187.508 38.7092 187.549 39.1433C187.589 39.5773 187.609 40.0524 187.609 40.568V44.2991C187.609 44.4348 187.607 44.5975 187.602 44.7873C187.598 44.9775 187.591 45.1808 187.582 45.398C187.573 45.6148 187.562 45.8391 187.549 46.0694C187.535 46.3002 187.519 46.5197 187.501 46.7277L189.298 46.6461V48.7628H182.179V46.931C182.529 46.931 182.807 46.8727 183.009 46.7552C183.212 46.6382 183.363 46.4713 183.462 46.2545C183.561 46.0381 183.624 45.7789 183.651 45.4768C183.678 45.1747 183.691 44.8386 183.691 44.4684L183.678 40.1386C183.678 39.5344 183.628 39.029 183.529 38.6234C183.43 38.2174 183.293 37.8929 183.117 37.649C182.942 37.4057 182.73 37.2341 182.483 37.1348C182.235 37.0355 181.953 36.9861 181.638 36.9861C181.197 36.9861 180.778 37.0877 180.381 37.2914C179.985 37.4947 179.639 37.732 179.341 38.0033V44.2991C179.341 44.4348 179.339 44.5975 179.335 44.7873C179.33 44.9775 179.323 45.1808 179.314 45.398C179.305 45.6148 179.294 45.8391 179.281 46.0694C179.267 46.3002 179.251 46.5197 179.233 46.7277L180.895 46.6461V48.7628H173.776V46.931C174.163 46.931 174.466 46.8727 174.687 46.7552C174.908 46.6382 175.072 46.4713 175.18 46.255C175.289 46.0381 175.356 45.7789 175.383 45.4768C175.41 45.1747 175.424 44.8386 175.424 44.4689V39.8015C175.424 39.4677 175.431 39.0961 175.444 38.6854C175.457 38.2751 175.487 37.8625 175.532 37.4472L173.586 37.5287Z" fill="black"/>
<path d="M197.293 30.7178V28.5741C197.933 28.5741 198.498 28.5484 198.988 28.4967C199.48 28.4449 199.898 28.3806 200.245 28.3032C200.592 28.2258 200.871 28.1419 201.083 28.0515C201.294 27.9614 201.449 27.8734 201.549 27.7871H203.048V35.9142C203.67 35.3533 204.302 34.9645 204.946 34.7473C205.59 34.53 206.201 34.4219 206.777 34.4219C207.605 34.4219 208.362 34.5869 209.047 34.917C209.731 35.2471 210.319 35.7175 210.809 36.3278C211.301 36.9385 211.681 37.6779 211.951 38.546C212.221 39.4146 212.356 40.3871 212.356 41.4631C212.356 42.5849 212.203 43.6185 211.897 44.5635C211.591 45.509 211.147 46.3253 210.567 47.0125C209.985 47.7002 209.281 48.2382 208.452 48.627C207.624 49.0159 206.687 49.2103 205.642 49.2103C205.39 49.2103 205.102 49.1903 204.777 49.1492C204.453 49.1087 204.111 49.0271 203.751 48.9054C203.391 48.7832 203.028 48.6112 202.663 48.3898C202.298 48.1683 201.954 47.8806 201.63 47.5282H201.603L200.806 48.7627H199.13V33.0647C199.13 32.7304 199.137 32.3458 199.151 31.9117C199.164 31.4777 199.194 31.0525 199.239 30.6361L197.293 30.7178ZM203.048 44.5975C203.048 45.0856 203.111 45.4955 203.238 45.8255C203.363 46.1556 203.528 46.42 203.73 46.6191C203.933 46.8181 204.16 46.9603 204.413 47.0466C204.665 47.1324 204.917 47.1752 205.169 47.1752C205.773 47.1752 206.275 47.0261 206.676 46.7277C207.076 46.4293 207.398 46.0335 207.642 45.5402C207.885 45.0474 208.056 44.4842 208.155 43.8511C208.254 43.218 208.304 42.5625 208.304 41.8837C208.304 41.2328 208.245 40.6085 208.128 40.0113C208.011 39.4146 207.831 38.8878 207.588 38.4308C207.344 37.9744 207.031 37.6098 206.649 37.3385C206.266 37.0672 205.809 36.9315 205.277 36.9315C204.818 36.9502 204.392 37.0653 204.001 37.2774C203.609 37.4905 203.291 37.7684 203.048 38.112V44.5975Z" fill="black"/>
<path d="M213.38 45.5067C213.38 44.9346 213.484 44.4195 213.69 43.9621C213.898 43.5043 214.183 43.0949 214.547 42.7341C214.911 42.3732 215.34 42.0613 215.835 41.797C216.329 41.5331 216.862 41.313 217.433 41.1373C218.004 40.961 218.6 40.8244 219.22 40.7274C219.84 40.631 220.461 40.5685 221.081 40.5405V39.0542C221.081 38.6747 221.049 38.325 220.986 38.0057C220.923 37.6863 220.814 37.4108 220.66 37.1791C220.507 36.9478 220.303 36.7674 220.05 36.6373C219.815 36.517 219.526 36.4569 219.182 36.4569C219.155 36.4569 219.128 36.4569 219.101 36.4569C218.722 36.4746 218.369 36.5511 218.044 36.6849C217.719 36.8191 217.439 37.0071 217.204 37.2481C217.348 37.4005 217.44 37.5749 217.481 37.7716C217.521 37.9679 217.541 38.1334 217.541 38.2677C217.541 38.4644 217.503 38.663 217.425 38.8644C217.348 39.0659 217.226 39.2491 217.062 39.4146C216.897 39.5801 216.689 39.7162 216.437 39.8235C216.185 39.9307 215.885 39.9843 215.536 39.9843C215.246 39.9755 214.984 39.919 214.752 39.8146C214.519 39.7111 214.326 39.5754 214.17 39.4076C214.015 39.2407 213.897 39.0439 213.815 38.8178C213.732 38.5917 213.691 38.3474 213.691 38.0849C213.691 37.5423 213.849 37.0448 214.165 36.5926C214.481 36.1403 214.916 35.7539 215.468 35.4326C216.02 35.1114 216.668 34.8624 217.414 34.6862C218.16 34.51 218.957 34.4219 219.806 34.4219C220.62 34.4219 221.345 34.5282 221.982 34.7408C222.619 34.9534 223.157 35.282 223.596 35.7259C224.034 36.1697 224.369 36.7343 224.599 37.4183C224.83 38.1027 224.945 38.9167 224.945 39.8598C224.945 40.3144 224.942 40.714 224.938 41.0589C224.934 41.4039 224.931 41.7317 224.931 42.0422C224.931 42.3527 224.929 42.6888 224.925 43.0506C224.92 43.4124 224.918 43.8287 224.918 44.2991C224.918 44.4348 224.915 44.5975 224.911 44.7873C224.906 44.9775 224.902 45.1808 224.897 45.398C224.893 45.6148 224.884 45.8391 224.87 46.0694C224.857 46.3002 224.841 46.5197 224.823 46.7277L226.606 46.6461V48.7627H221.366C221.329 48.5007 221.305 48.2811 221.291 48.1049C221.277 47.9282 221.266 47.7226 221.257 47.4872H221.23C220.595 48.1207 219.933 48.566 219.244 48.8238C218.555 49.0816 217.843 49.2103 217.109 49.2103C216.52 49.2103 215.995 49.1175 215.532 48.9324C215.069 48.7469 214.679 48.4867 214.363 48.152C214.046 47.8177 213.803 47.4261 213.634 46.9785C213.465 46.5309 213.38 46.0405 213.38 45.5067ZM217.298 45.0451C217.307 45.3076 217.357 45.529 217.447 45.7099C217.538 45.8908 217.653 46.0405 217.793 46.1575C217.933 46.2755 218.095 46.3612 218.281 46.4153C218.466 46.4699 218.658 46.4969 218.857 46.4969C219.291 46.4969 219.693 46.4065 220.064 46.2256C220.435 46.0447 220.764 45.7962 221.054 45.4791L221.067 42.3723C220.543 42.4268 220.051 42.5215 219.59 42.6571C219.128 42.7928 218.729 42.9718 218.39 43.1933C218.05 43.4147 217.784 43.6795 217.59 43.9868C217.395 44.2945 217.298 44.6474 217.298 45.0451Z" fill="black"/>
<path d="M227.306 37.5693V35.4256C227.945 35.4256 228.511 35.3986 229.001 35.3445C229.492 35.29 229.911 35.2224 230.258 35.1408C230.604 35.0592 230.884 34.9711 231.096 34.8764C231.307 34.7813 231.462 34.6885 231.562 34.5981H232.926L233.048 37.0159H233.088C233.268 36.7693 233.487 36.4947 233.744 36.1926C234 35.8905 234.297 35.6088 234.635 35.3482C234.973 35.0876 235.344 34.868 235.75 34.6895C236.155 34.5109 236.596 34.4219 237.073 34.4219C237.398 34.4219 237.706 34.4676 237.999 34.5589C238.292 34.6503 238.548 34.7897 238.769 34.9771C238.99 35.1645 239.165 35.4047 239.296 35.6974C239.427 35.9897 239.492 36.3418 239.492 36.7534C239.492 36.9679 239.456 37.1888 239.384 37.4164C239.311 37.6439 239.199 37.8518 239.046 38.0393C238.893 38.2267 238.693 38.3805 238.445 38.5013C238.197 38.6215 237.898 38.6822 237.546 38.6822C237.358 38.6822 237.164 38.6575 236.966 38.609C236.767 38.56 236.585 38.4761 236.418 38.3563C236.252 38.2365 236.108 38.0742 235.986 37.8705C235.865 37.6663 235.79 37.4047 235.763 37.0854C235.484 37.0854 235.203 37.1781 234.919 37.3637C234.635 37.5492 234.369 37.78 234.122 38.056C233.874 38.332 233.656 38.6281 233.466 38.9451C233.277 39.2617 233.142 39.5465 233.061 39.8001V44.3103C233.061 44.4455 233.059 44.6073 233.055 44.7966C233.05 44.9854 233.043 45.1882 233.034 45.4041C233.025 45.6204 233.014 45.8433 233 46.0727C232.987 46.3025 232.971 46.5207 232.953 46.7277L234.75 46.6461V48.7628H227.495V46.931C227.882 46.931 228.186 46.8727 228.407 46.7561C228.628 46.6396 228.792 46.4736 228.9 46.2582C229.008 46.0428 229.076 45.7855 229.103 45.4848C229.13 45.184 229.144 44.8502 229.144 44.4824V39.8407C229.144 39.5074 229.15 39.1353 229.164 38.7255C229.177 38.3152 229.206 37.9027 229.252 37.4882L227.306 37.5693Z" fill="black"/>
<path d="M239.651 42.169C239.651 41.0473 239.815 40.0137 240.144 39.0687C240.473 38.1236 240.937 37.3073 241.536 36.6196C242.135 35.9324 242.855 35.3939 243.698 35.0051C244.539 34.6162 245.474 34.4219 246.501 34.4219C247.014 34.4219 247.467 34.4736 247.858 34.5776C248.25 34.682 248.617 34.7971 248.96 34.9235V33.0787C248.96 32.943 248.962 32.7798 248.966 32.5901C248.971 32.3999 248.977 32.1966 248.987 31.9793C248.995 31.7625 249.007 31.5388 249.02 31.308C249.034 31.0772 249.049 30.8581 249.068 30.6497L247.122 30.7312V28.6146C247.761 28.6146 248.326 28.5876 248.818 28.5335C249.308 28.479 249.727 28.4113 250.074 28.3298C250.421 28.2482 250.7 28.16 250.912 28.0654C251.123 27.9703 251.278 27.8775 251.378 27.7871H252.877V44.2991C252.877 44.4348 252.875 44.5975 252.871 44.7873C252.866 44.9775 252.859 45.1807 252.85 45.398C252.841 45.6148 252.83 45.8391 252.816 46.0694C252.803 46.3002 252.787 46.5197 252.769 46.7277L254.566 46.6461V48.7627H249.311L249.162 47.4736H249.135C248.522 48.1161 247.89 48.566 247.237 48.8238C246.584 49.0816 245.915 49.2103 245.231 49.2103C244.402 49.2103 243.646 49.0452 242.961 48.7152C242.277 48.3851 241.689 47.9147 241.198 47.3044C240.707 46.6937 240.327 45.9542 240.057 45.0856C239.787 44.2176 239.651 43.2455 239.651 42.169ZM243.704 41.735C243.704 42.3336 243.758 42.9275 243.866 43.5173C243.974 44.1071 244.148 44.6353 244.387 45.102C244.625 45.5691 244.933 45.9477 245.312 46.2382C245.69 46.5281 246.145 46.6731 246.677 46.6731C247.145 46.6731 247.581 46.551 247.987 46.3062C248.392 46.0615 248.716 45.7435 248.96 45.3537V36.9735C248.761 36.8378 248.487 36.7175 248.136 36.6131C247.784 36.5091 247.406 36.4569 247.001 36.4569C246.361 36.4751 245.83 36.6359 245.406 36.9399C244.983 37.2439 244.645 37.6429 244.393 38.1367C244.141 38.6313 243.963 39.1913 243.86 39.8169C243.756 40.4426 243.704 41.0823 243.704 41.735Z" fill="black"/>
</svg>
